<svg width="32" height="70" viewBox="0 0 32 70" fill="none" xmlns="http://www.w3.org/2000/svg">
    <path d="M0 53.4695C0 50.7976 0.628684 48.3143 1.85462 45.9882C3.08055 43.6621 4.80943 41.7446 7.04126 40.2043V9.02161C7.04126 6.50688 7.88998 4.36935 9.61886 2.64047C11.3477 0.911592 13.4853 0 16 0C18.5462 0 20.6837 0.880158 22.4126 2.60904C24.1415 4.36935 25.0216 6.47544 25.0216 8.99018V40.1729C27.2534 41.7132 28.9509 43.6621 30.1768 45.9568C31.4028 48.2515 32 50.7662 32 53.4381C32 56.3301 31.277 59.0334 29.8625 61.4853C28.4479 63.9371 26.499 65.886 24.0471 67.3006C21.5953 68.7151 18.9234 69.4381 16 69.4381C13.1081 69.4381 10.4361 68.7151 7.98428 67.3006C5.53242 65.886 3.5835 63.9371 2.13753 61.4853C0.691553 59.0334 0 56.3615 0 53.4695ZM5.53242 53.4695C5.53242 56.3929 6.56974 58.9077 8.61297 60.9823C10.6562 63.057 13.1395 64.0943 16.0314 64.0943C18.9548 64.0943 21.4695 63.057 23.5756 60.9509C25.6817 58.8448 26.7505 56.3615 26.7505 53.501C26.7505 51.5521 26.2475 49.7289 25.2417 48.0629C24.2358 46.3969 22.8527 45.1081 21.0923 44.1965L20.2122 43.7564C19.8978 43.6306 19.7407 43.3163 19.7407 42.8448V9.02161C19.7407 8.01572 19.3949 7.16699 18.6719 6.47544C17.9489 5.81532 17.0688 5.46955 16 5.46955C14.9941 5.46955 14.1139 5.81532 13.391 6.47544C12.668 7.13556 12.3222 7.98428 12.3222 9.02161V42.7819C12.3222 43.2534 12.165 43.5678 11.8821 43.6935L11.0334 44.1336C9.30452 45.0452 7.95285 46.334 6.97839 48C6.00393 49.666 5.53242 51.4578 5.53242 53.4695ZM7.98428 53.4695C7.98428 55.7014 8.7387 57.6189 10.279 59.1906C11.8193 60.7623 13.6424 61.5481 15.8114 61.5481C17.9804 61.5481 19.835 60.7623 21.4381 59.1906C23.0413 57.6189 23.8271 55.7014 23.8271 53.501C23.8271 51.5206 23.1356 49.7603 21.7839 48.2515C20.4322 46.7426 18.7662 45.831 16.8173 45.5796V22.444C16.8173 22.2554 16.723 22.0354 16.5029 21.8468C16.2829 21.6267 16.0629 21.5324 15.8114 21.5324C15.5285 21.5324 15.3084 21.6267 15.1513 21.7839C14.9941 21.9725 14.8998 22.1611 14.8998 22.444V45.5167C12.9823 45.7996 11.3477 46.6798 9.99607 48.1886C8.6444 49.7289 7.98428 51.4578 7.98428 53.4695Z" fill="black"/>
    </svg>
    